<svg width="16" height="16" viewBox="0 0 16 16" fill="none" xmlns="http://www.w3.org/2000/svg">
<path fill-rule="evenodd" clip-rule="evenodd" d="M5.33333 8V2H4V8C4 9.06087 4.42143 10.0783 5.17157 10.8284C5.92172 11.5786 6.93913 12 8 12C9.06087 12 10.0783 11.5786 10.8284 10.8284C11.5786 10.0783 12 9.06087 12 8V2H10.6667V8C10.6667 8.70727 10.3857 9.38553 9.8856 9.8856C9.38553 10.3857 8.70725 10.6667 8 10.6667C7.29275 10.6667 6.61448 10.3857 6.11438 9.8856C5.61429 9.38553 5.33333 8.70727 5.33333 8ZM8.00001 15C8.5523 15 9.00001 14.5523 9.00001 14C9.00001 13.4477 8.5523 13 8.00001 13C7.44773 13 7.00001 13.4477 7.00001 14C7.00001 14.5523 7.44773 15 8.00001 15Z" fill="currentColor"/>
</svg>
