<svg viewBox="-3 -3.5 19 19" version="1.1" xmlns="http://www.w3.org/2000/svg" xmlns:xlink="http://www.w3.org/1999/xlink">
    <g stroke="none" stroke-width="1" fill="none" fill-rule="evenodd">
        <g fill="currentColor" fill-rule="nonzero">
            <path d="M10.5831112,0 C11.0067894,0 11.4208887,0.3331282 11.4208887,0.819179476 L11.4208887,6.08676923 C11.4208887,8.67282051 9.27670894,10.7692308 6.63148375,10.7692308 C4.0665732,10.7692308 1.97249801,8.79774358 1.84797347,6.32082051 L1.84207883,6.08676923 L1.84207883,0.819179476 C1.84207883,0.366871784 2.21786291,0 2.68059309,0 C3.10427122,0 3.51837054,0.3331282 3.51837054,0.819179476 L3.51837054,6.08676923 C3.51680581,6.89271674 3.84393829,7.66624986 4.4277817,8.23715078 C5.0116251,8.80805171 5.80433862,9.12954014 6.63148375,9.13087178 C8.27741656,9.12857266 9.63794837,7.87992599 9.7387023,6.27917948 L9.74459697,6.08676923 L9.74459697,0.819179476 C9.74459697,0.366871784 10.120381,0 10.5823744,0 L10.5831112,0 Z"></path>
            <path d="M0.00884197834,12.8283077 L0,12.8225641 L0.00442098917,12.6373333 C0.00333405177,12.6131415 0.00186020972,12.5889676 0,12.5648205 C0.00663148375,12.4966154 0.00736832104,12.418359 0.00810514105,12.3386667 L0.00810514105,12.152 C0.00810514105,12.0313846 0.00589464647,11.9201026 0,11.8468718 C0.400836357,11.8468718 0.631464614,12.3781538 1.1848251,12.3781538 C1.7389224,12.3781538 2.02702353,11.8468718 2.77122337,11.8468718 C3.51616005,11.8468718 3.42184562,12.3781538 4.01425817,12.3781538 C4.60593388,12.3781538 4.62582833,11.8468718 5.52328913,11.8468718 C6.42074993,11.8468718 6.24833135,12.3781538 6.88200648,12.3781538 C7.51568159,12.3781538 7.33884202,11.8468718 8.3129333,11.8468718 C9.28776141,11.8468718 9.38354951,12.5052308 9.74680746,12.5052308 C10.1100654,12.5052308 10.5683746,11.8468718 11.1799448,11.8468718 C11.7915149,11.8468718 12.3271915,12.3781538 12.6329766,12.3781538 C12.9387616,12.3781538 13.5879102,11.704718 13.9710626,11.8734359 C14.0093779,12.1577436 14.0093779,12.445641 13.9710626,12.7306667 L13.9799046,12.6610256 C14.0093779,12.922359 14.0064305,13.187282 13.9710626,13.4486154 C13.5503318,13.4486154 13.3020196,14 12.5379253,14 C11.7730942,14 11.6780429,13.4486154 11.1998392,13.4486154 C10.7208987,13.4486154 10.7208987,14 9.70849222,14 C8.6960857,14 9.02029156,13.4486154 8.38956379,13.4486154 C7.76030967,13.4486154 7.72273126,14 6.88348014,14 C6.04422902,14 6.04054486,13.4486154 5.50560517,13.4486154 C4.96919183,13.4486154 4.89403501,14 4.05183657,14 C3.21037497,14 3.03943005,13.4486154 2.59880479,13.4486154 C2.15891637,13.4486154 2.14049558,13.9698462 1.20324589,14 C0.707358267,14 0,13.5405128 0,13.5405128 C0,13.5405128 0.00663148375,13.3057436 0.00810514105,13.0566154 L0.00884197834,12.8283077 Z"></path>
        </g>
    </g>
</svg>
